# xmcd CD database file
#
# Track frame offsets:
#	150
#	20310
#	45527
#	75704
#	95708
#	108289
#	121774
#	149614
#	164405
#	191733
#	211591
#	246181
#	269368
#
# Disc length: 3861 seconds
#
# Revision: 1
# Processed by: cddbd v1.5.2PL0 Copyright (c) Steve Scherf et al.
# Submitted via: CDex 1.51
#
DISCID=af0f130d
DTITLE=Artisti vari - NANS 189
DYEAR=2009
DGENRE=New Age
TTITLE0=Luciana Bigazzi - Nara song
TTITLE1=Gnomusy - Dolmen ridge
TTITLE2=David Wright - Evolution
TTITLE3=Michael Dulin - Promised land
TTITLE4=Macramè - Bossa da madrugada
TTITLE5=Massimo D'Arrigo - 14-02-1998
TTITLE6=Jhon Savannah - Del mare
TTITLE7=Martino De Cesare - G.G.
TTITLE8=Caprice - The dusk of kimmeria-more
TTITLE9=Paul Hartnoll - Haven't we met before
TTITLE10=Capitanata - Merope
TTITLE11=Marco Banducci and Sergio Barbirato - Flashback
TTITLE12=Afra Thi - Desert Tales
EXTD=YEAR: 2009
EXTT0=
EXTT1=
EXTT2=
EXTT3=
EXTT4=
EXTT5=
EXTT6=
EXTT7=
EXTT8=
EXTT9=
EXTT10=
EXTT11=
EXTT12=
PLAYORDER=
